<?xml version="1.0" encoding="UTF-8" standalone="no"?>
<!-- Generator: Adobe Illustrator 12.0.1, SVG Export Plug-In . SVG Version: 6.00 Build 51448)  -->
<svg
   xmlns:dc="http://purl.org/dc/elements/1.1/"
   xmlns:cc="http://creativecommons.org/ns#"
   xmlns:rdf="http://www.w3.org/1999/02/22-rdf-syntax-ns#"
   xmlns:svg="http://www.w3.org/2000/svg"
   xmlns="http://www.w3.org/2000/svg"
   xmlns:sodipodi="http://sodipodi.sourceforge.net/DTD/sodipodi-0.dtd"
   xmlns:inkscape="http://www.inkscape.org/namespaces/inkscape"
   version="1.1"
   id="Layer_1"
   width="278.072"
   height="279"
   viewBox="0 0 278.072 279"
   overflow="visible"
   enable-background="new 0 0 278.072 279"
   xml:space="preserve"
   sodipodi:version="0.32"
   inkscape:version="0.46"
   sodipodi:docname="MyAtomic_1color.svg"
   inkscape:output_extension="org.inkscape.output.svg.inkscape"><metadata
   id="metadata50"><rdf:RDF><cc:Work
       rdf:about=""><dc:format>image/svg+xml</dc:format><dc:type
         rdf:resource="http://purl.org/dc/dcmitype/StillImage" /></cc:Work></rdf:RDF></metadata><defs
   id="defs48"><inkscape:perspective
     sodipodi:type="inkscape:persp3d"
     inkscape:vp_x="0 : 139.5 : 1"
     inkscape:vp_y="0 : 1000 : 0"
     inkscape:vp_z="278.07199 : 139.5 : 1"
     inkscape:persp3d-origin="139.036 : 93 : 1"
     id="perspective52" /></defs><sodipodi:namedview
   inkscape:window-height="964"
   inkscape:window-width="1680"
   inkscape:pageshadow="2"
   inkscape:pageopacity="0.0"
   guidetolerance="10.0"
   gridtolerance="10.0"
   objecttolerance="10.0"
   borderopacity="1.0"
   bordercolor="#666666"
   pagecolor="#ffffff"
   id="base"
   showgrid="false"
   inkscape:zoom="2.341816"
   inkscape:cx="181.69662"
   inkscape:cy="149.65593"
   inkscape:window-x="-4"
   inkscape:window-y="-4"
   inkscape:current-layer="Layer_1" />
<g
   id="g3">
	
	<g
   id="g7">
		
			
		
		
	</g>
</g>




<g
   id="g23">
	<g
   id="g25">
		<path
   fill="#FFFFFF"
   d="M 178.632,177.993 C 178.632,189.389 167.635,192.381 167.635,192.381 L 156.168,195.497 C 145.172,198.489 145.172,187.093 145.172,187.093 L 145.172,180.259 C 145.172,168.863 156.168,165.872 156.168,165.872 L 167.635,162.752 C 178.632,159.763 178.632,171.158 178.632,171.158 L 178.632,177.993 z M 178.632,142.341 C 178.632,153.737 167.635,156.725 167.635,156.725 L 156.168,159.844 C 145.172,162.836 145.172,151.441 145.172,151.441 L 145.172,144.603 C 145.172,133.207 156.168,130.219 156.168,130.219 L 167.635,127.099 C 178.633,124.109 178.633,135.503 178.633,135.503 L 178.632,142.341 z M 178.633,106.394 C 178.633,117.79 167.635,120.781 167.635,120.781 L 156.168,123.901 C 145.172,126.892 145.172,115.498 145.172,115.498 L 145.172,108.659 C 145.172,97.263 156.168,94.273 156.168,94.273 L 167.635,91.155 C 178.633,88.164 178.633,99.559 178.633,99.559 L 178.633,106.394 z"
   id="path27"
   sodipodi:nodetypes="ccccccccccccccccccccccccccc"
   style="fill:#000000;stroke:none;stroke-opacity:1;fill-opacity:1;fill-rule:nonzero" />
	</g>
	<g
   id="g29">
		
	</g>
</g>



<path
   d="M 127.507,115.497 C 127.507,115.497 127.507,126.892 116.51,123.9 L 105.042,120.78 C 105.042,120.78 94.047,117.788 94.047,106.393 L 94.047,99.558 C 94.047,99.558 94.047,88.162 105.042,91.154 L 116.51,94.272 C 116.51,94.272 127.507,97.262 127.507,108.658 L 127.507,115.497 z M 127.507,151.44 C 127.507,151.44 127.507,162.835 116.509,159.843 L 105.042,156.724 C 105.042,156.724 94.047,153.735 94.047,142.34 L 94.047,135.501 C 94.047,135.501 94.047,124.106 105.042,127.097 L 116.51,130.217 C 116.51,130.217 127.507,133.206 127.507,144.601 L 127.507,151.44 z M 127.507,187.093 C 127.507,187.093 127.507,198.489 116.509,195.497 L 105.042,192.381 C 105.042,192.381 94.047,189.389 94.047,177.993 L 94.047,171.158 C 94.047,171.158 94.047,159.762 105.042,162.752 L 116.509,165.872 C 116.509,165.872 127.507,168.863 127.507,180.259 L 127.507,187.093 z"
   id="path39"
   sodipodi:nodetypes="ccccccccccccccccccccccccccc" />
<rect
   fill="none"
   width="278.072"
   height="279"
   id="rect41" />

<path
   fill="#FFFFFF"
   d="M119.026,234.944"
   id="path45" />
<path
   style="fill:none;fill-rule:evenodd;stroke:#000000;stroke-width:1px;stroke-linecap:butt;stroke-linejoin:miter;stroke-opacity:1"
   d="M 83.941561,61.748374 L 136.48052,49.519477 L 189.62338,61.295452 L 189.62338,74.732141 L 136.32955,87.262985 L 83.941561,75.336037 L 83.941561,61.748374 z"
   id="path2427"
   sodipodi:nodetypes="ccccccc" /><path
   style="fill:none;fill-rule:evenodd;stroke:#000000;stroke-width:1px;stroke-linecap:butt;stroke-linejoin:miter;stroke-opacity:1"
   d="M 135.72565,53.444802 L 180.11202,63.258114 L 136.6315,73.524348 L 92.547081,63.711036 L 135.72565,53.444802 z"
   id="path2429"
   sodipodi:nodetypes="ccccc" /><path
   style="fill:none;fill-rule:evenodd;stroke:#000000;stroke-width:1px;stroke-linecap:butt;stroke-linejoin:miter;stroke-opacity:1"
   d="M 186.6039,75.487011 L 186.75488,220.875 L 180.86689,222.23377 L 180.86689,208.19318 L 143.72728,216.94968 L 143.72728,230.99027 L 136.48052,232.65098 L 130.29058,231.14124 L 130.44156,217.25163 L 91.641237,208.49513 L 91.641237,222.53572 L 85.904224,221.02598 L 85.904224,75.788959 L 136.32955,87.262985 L 186.6039,75.487011 z"
   id="path2431"
   sodipodi:nodetypes="ccccccccccccccc" /><path
   style="fill:none;fill-rule:evenodd;stroke:#000000;stroke-width:1px;stroke-linecap:butt;stroke-linejoin:miter;stroke-opacity:1"
   d="M 136.17858,87.262985 L 136.48052,232.5"
   id="path2433"
   sodipodi:nodetypes="cc" /><path
   style="fill:none;fill-rule:evenodd;stroke:#000000;stroke-width:1px;stroke-linecap:butt;stroke-linejoin:miter;stroke-opacity:1"
   d="M 98.13312,58.426945 C 102.3238,42.197143 115.0724,1.651951 137.38637,1.2077874 C 156.4744,0.99409642 171.12236,35.378277 176.48864,58.577919"
   id="path2435"
   sodipodi:nodetypes="ccc" /><path
   style="fill:none;fill-rule:evenodd;stroke:#000000;stroke-width:1px;stroke-linecap:butt;stroke-linejoin:miter;stroke-opacity:1"
   d="M 162.90098,55.558439 C 179.169,44.989401 216.9952,24.886106 234.91559,40.159087 C 259.77414,69.660018 197.68251,145.4384 186.6039,156.10714"
   id="path2437"
   sodipodi:nodetypes="ccc" /><path
   style="fill:none;fill-rule:evenodd;stroke:#000000;stroke-width:1px;stroke-linecap:butt;stroke-linejoin:miter;stroke-opacity:1"
   d="M 186.6039,94.509739 C 227.91951,100.23038 276.64898,116.25159 276.7354,139.65097 C 276.36489,169.95039 206.98545,183.18185 186.6039,185.24513"
   id="path2439"
   sodipodi:nodetypes="ccc" /><path
   style="fill:none;fill-rule:evenodd;stroke:#000000;stroke-width:1px;stroke-linecap:butt;stroke-linejoin:miter;stroke-opacity:1"
   d="M 186.75488,119.42045 C 202.47376,132.85042 267.78232,203.19461 242.46429,230.68831 C 221.60908,247.75928 174.86441,222.56992 158.37176,213.47728"
   id="path2441"
   sodipodi:nodetypes="ccc" /><path
   style="fill:none;fill-rule:evenodd;stroke:#000000;stroke-width:1px;stroke-linecap:butt;stroke-linejoin:miter;stroke-opacity:1"
   d="M 178.75325,208.79708 C 176.98894,220.6894 163.90415,275.85349 137.38637,276.73539 C 113.31231,276.23197 100.13137,230.90715 95.86851,209.40098"
   id="path2443"
   sodipodi:nodetypes="ccc" /><path
   style="fill:none;fill-rule:evenodd;stroke:#000000;stroke-width:1px;stroke-linecap:butt;stroke-linejoin:miter;stroke-opacity:1"
   d="M 120.17533,214.98702 C 97.260924,230.86804 59.863327,249.83716 41.668833,236.87825 C 16.514977,215.43437 61.553885,149.27252 85.904224,122.5909"
   id="path2445"
   sodipodi:nodetypes="ccc" /><path
   style="fill:none;fill-rule:evenodd;stroke:#000000;stroke-width:1px;stroke-linecap:butt;stroke-linejoin:miter;stroke-opacity:1"
   d="M 85.904224,184.64124 C 67.322538,182.43269 2.2585968,169.1891 1.0568182,140.25487 C 1.3365197,112.72004 62.181383,98.465647 85.904224,95.566557"
   id="path2447"
   sodipodi:nodetypes="ccc" /><path
   style="fill:none;fill-rule:evenodd;stroke:#000000;stroke-width:1px;stroke-linecap:butt;stroke-linejoin:miter;stroke-opacity:1"
   d="M 85.904224,157.91883 C 54.131778,127.80464 17.34687,78.315061 31.251624,53.74675 C 45.587495,32.126038 92.838888,54.677765 100.09578,57.974023"
   id="path2449"
   sodipodi:nodetypes="ccc" /></svg>