<?xml version="1.0" encoding="utf-8"?>
<!-- Generator: Adobe Illustrator 14.0.0, SVG Export Plug-In . SVG Version: 6.00 Build 43363)  -->
<!DOCTYPE svg PUBLIC "-//W3C//DTD SVG 1.1//EN" "http://www.w3.org/Graphics/SVG/1.1/DTD/svg11.dtd">
<svg version="1.1" id="Layer_1" xmlns="http://www.w3.org/2000/svg" xmlns:xlink="http://www.w3.org/1999/xlink" x="0px" y="0px"
	 width="278.072px" height="279px" viewBox="0 0 278.072 279" enable-background="new 0 0 278.072 279" xml:space="preserve">
<path d="M277.675,140.095c0-13.332-14.566-25.771-41.018-35.025c-3.054-1.068-6.235-2.075-9.513-3.03
	c1.539-2.823,2.992-5.621,4.318-8.374c12.159-25.247,13.664-44.343,4.237-53.77c-4.225-4.225-10.231-6.367-17.854-6.367
	c-11.588,0-26.666,5.124-43.381,14.226c-0.683-2.212-1.382-4.391-2.118-6.495c-9.254-26.451-21.692-41.018-35.024-41.018
	c-13.332,0-25.771,14.567-35.025,41.018c-1.61,4.602-3.085,9.482-4.435,14.582c-17.289-7.94-32.937-12.348-45.228-12.348
	c-9.451,0-16.438,2.614-20.764,7.771c-8.569,10.211-5.407,29.103,8.905,53.194c0.122,0.205,0.257,0.413,0.38,0.618
	c-26.434,9.253-40.991,21.688-40.991,35.016c0,13.332,14.567,25.771,41.017,35.025c1.726,0.604,3.495,1.188,5.294,1.755
	c-0.964,1.841-1.896,3.671-2.768,5.48c-12.16,25.247-13.665,44.343-4.238,53.77c4.055,4.055,9.912,6.111,17.408,6.111
	c0.001,0,0.001,0,0.003,0c11.537,0,26.389-4.91,42.799-13.65c0.834,2.793,1.7,5.527,2.619,8.152
	c9.255,26.45,21.694,41.018,35.025,41.018c13.332,0,25.771-14.567,35.024-41.018c1.409-4.027,2.708-8.28,3.919-12.692
	c18.152,8.579,34.606,13.373,47.412,13.373c9.451,0,16.438-2.614,20.764-7.771c8.569-10.212,5.406-29.104-8.905-53.194
	c-0.157-0.265-0.331-0.532-0.49-0.798c0.533-0.181,1.084-0.352,1.61-0.536C263.108,165.865,277.675,153.427,277.675,140.095z
	 M217.847,35.53c7.072,0,12.604,1.945,16.439,5.781c8.779,8.78,7.137,27.065-4.625,51.488c-1.374,2.854-2.881,5.753-4.486,8.683
	c-12.477-3.501-26.431-6.183-41.334-7.971c-1.938-15.925-4.903-30.75-8.795-43.835C191.573,40.625,206.454,35.53,217.847,35.53z
	 M184.521,139c0,6.311-0.151,12.521-0.438,18.606c-4.209,4.635-8.583,9.238-13.124,13.779c-5.451,5.451-10.985,10.657-16.546,15.603
	c-5.087,0.199-10.254,0.305-15.492,0.305c-6.222,0-12.345-0.147-18.349-0.426c-4.266-3.289-8.523-6.707-12.752-10.256
	c-5.955-4.997-11.646-10.071-17.055-15.174c-0.418-7.304-0.639-14.797-0.639-22.438c0-6.824,0.176-13.531,0.511-20.09
	c4.345-4.801,8.874-9.569,13.576-14.272c3.806-3.806,7.648-7.494,11.509-11.059c7.543-0.447,15.292-0.683,23.199-0.683
	c5.318,0,10.563,0.109,15.726,0.314c4.633,3.545,9.259,7.241,13.85,11.094c5.374,4.51,10.537,9.082,15.469,13.682
	C184.329,124.838,184.521,131.855,184.521,139z M169.78,102.772c-3.865-3.243-7.755-6.379-11.654-9.408
	c8.23,0.401,16.229,1.054,23.924,1.939c0.748,6.407,1.335,13.026,1.749,19.815C179.279,110.95,174.608,106.824,169.78,102.772z
	 M155.368,91.248c-6.76-5.153-13.535-9.968-20.252-14.404c13.106-10.538,26.072-19.417,38.197-26.212
	c3.659,12.494,6.559,26.908,8.491,42.644C173.255,92.302,164.413,91.622,155.368,91.248z M151.884,91.111
	c-4.284-0.139-8.607-0.214-12.964-0.214c-7.048,0-14.014,0.187-20.857,0.547c5.134-4.664,10.292-9.1,15.435-13.286
	C139.592,82.171,145.739,86.497,151.884,91.111z M114.881,91.637c-7.542,0.461-14.928,1.128-22.085,2.013
	c1.535-12.617,3.692-24.391,6.363-35.014c10.41,4.92,21.396,11.104,32.592,18.378C126.125,81.605,120.483,86.485,114.881,91.637z
	 M112.581,93.779c-3.28,3.065-6.546,6.208-9.783,9.445c-4.135,4.135-8.125,8.324-11.988,12.539
	c0.408-6.878,0.993-13.583,1.743-20.071C99.018,94.885,105.708,94.244,112.581,93.779z M88.675,118.089
	c-6.652,7.378-12.837,14.834-18.514,22.261c-10.564-11.788-19.385-23.388-26.108-34.216c13.22-4.4,28.994-7.891,46.468-10.181
	C89.7,103.144,89.075,110.535,88.675,118.089z M88.531,121.267c-0.26,5.838-0.406,11.752-0.406,17.733
	c0,6.898,0.176,13.721,0.522,20.424c-6.102-5.847-11.828-11.724-17.125-17.562C76.757,134.996,82.447,128.104,88.531,121.267z
	 M88.822,162.34c0.444,7.486,1.096,14.817,1.957,21.931c-15.294-1.991-29.293-4.901-41.423-8.536
	c5.624-10.428,12.687-21.299,20.943-32.27C76.052,149.795,82.247,156.11,88.822,162.34z M90.941,164.348
	c5,4.664,10.205,9.274,15.592,13.795c3.502,2.938,7.025,5.783,10.557,8.547c-8.367-0.466-16.482-1.193-24.272-2.159
	C92.021,178.014,91.391,171.272,90.941,164.348z M119.849,188.829c5.78,4.44,11.576,8.632,17.34,12.554
	c-12.46,9.76-24.774,18.002-36.332,24.342c-3.295-11.61-5.942-24.817-7.784-39.152C101.711,187.633,110.672,188.388,119.849,188.829
	z M123.334,188.979c5.141,0.201,10.337,0.314,15.585,0.314c4.412,0,8.791-0.076,13.13-0.219c-4.403,3.851-8.818,7.527-13.219,11.019
	C133.683,196.601,128.506,192.893,123.334,188.979z M155.207,188.948c9.002-0.367,17.805-1.039,26.316-2.001
	c-1.605,12.386-3.813,23.924-6.521,34.312c-11.013-5.349-22.639-12.091-34.441-19.996
	C145.441,197.381,150.335,193.263,155.207,188.948z M157.558,186.853c4.979-4.483,9.932-9.17,14.814-14.053
	c3.979-3.979,7.822-8.008,11.55-12.062c-0.462,8.333-1.184,16.416-2.142,24.178C173.99,185.806,165.893,186.459,157.558,186.853z
	 M186.041,158.429c6.23-6.886,12.075-13.842,17.463-20.781c11.681,12.722,21.373,25.278,28.638,36.946
	c-13.768,4.434-30.179,7.9-48.322,10.083C184.855,176.202,185.601,167.421,186.041,158.429z M186.177,155.278
	c0.219-5.367,0.344-10.794,0.344-16.278c0-6.428-0.162-12.782-0.463-19.043c5.689,5.387,11.056,10.805,16.07,16.199
	C197.184,142.536,191.845,148.932,186.177,155.278z M185.909,117.076c-0.408-7.345-1.024-14.536-1.833-21.531
	c14.675,1.777,28.212,4.394,40.127,7.683c-5.696,10.158-12.729,20.703-20.847,31.316
	C197.897,128.68,192.061,122.837,185.909,117.076z M137.323,2.244c14.092,0,26.758,17.993,35.414,46.459
	c-12.501,6.966-25.871,16.117-39.359,26.991c-11.578-7.547-22.95-13.944-33.721-19.009C108.281,23.64,121.956,2.244,137.323,2.244z
	 M33.403,52.552c3.929-4.682,10.399-7.056,19.232-7.056c12.119,0,27.595,4.387,44.722,12.29c-2.835,11.106-5.05,23.265-6.6,36.128
	c-17.62,2.29-33.829,5.848-47.73,10.54C29.279,81.739,24.968,62.604,33.403,52.552z M2.165,140.095
	c0-12.999,15.307-24.788,40.025-33.332c7.014,11.405,16.071,23.308,26.742,35.2c-8.508,11.276-15.772,22.458-21.525,33.174
	C19.645,166.492,2.165,153.985,2.165,140.095z M56.877,240.236c-6.946,0-12.328-1.859-15.994-5.525
	c-8.779-8.78-7.137-27.065,4.626-51.487c0.915-1.899,1.9-3.823,2.919-5.759c12.713,3.866,27.112,6.848,42.599,8.847
	c1.854,14.564,4.566,28.191,8.072,40.357C82.876,235.356,68.221,240.237,56.877,240.236z M137.323,275.756
	c-14.361,0-27.242-18.686-35.906-48.1c11.933-6.509,24.648-15.011,37.493-25.1c12.185,8.188,24.199,15.149,35.577,20.648
	C165.841,255.176,152.396,275.756,137.323,275.756z M242.911,228.363c-3.93,4.682-10.4,7.056-19.232,7.056
	c-12.626,0-28.899-4.771-46.883-13.31c2.873-10.863,5.146-22.772,6.768-35.398c18.285-2.178,35.149-5.702,49.612-10.431
	C247.011,199.074,251.368,218.284,242.911,228.363z M204.729,136.039c8.379-10.931,15.624-21.797,21.458-32.255
	c30.215,8.665,49.487,21.725,49.487,36.311c0,13.282-15.985,25.299-41.658,33.884C226.443,161.694,216.495,148.836,204.729,136.039z
	"/>
<rect x="86.142" y="88.021" fill="#FFFFFF" width="45.692" height="110.786"/>
<rect x="139.08" y="88.02" width="45.69" height="110.789"/>
<g>
	<path fill="#FFFFFF" d="M186.705,206.213V75.658l-50.526,11.675l-0.001,131.423l1.272-0.294l0.032,12.777l6.136-1.673v-12.529
		l37.283-8.613l-0.018,14.525l5.827-1.678v-15.06L186.705,206.213L186.705,206.213z M178.632,177.993
		c0,11.396-10.997,14.388-10.997,14.388l-11.467,3.116c-10.996,2.992-10.996-8.404-10.996-8.404v-6.834
		c0-11.396,10.996-14.387,10.996-14.387l11.467-3.12c10.997-2.988,10.997,8.406,10.997,8.406V177.993z M178.632,142.341
		c0,11.396-10.997,14.384-10.997,14.384l-11.467,3.119c-10.996,2.992-10.996-8.402-10.996-8.402v-6.838
		c0-11.396,10.996-14.385,10.996-14.385l11.467-3.12c10.998-2.99,10.998,8.404,10.998,8.404L178.632,142.341z M178.633,106.394
		c0,11.396-10.998,14.387-10.998,14.387l-11.467,3.12c-10.996,2.991-10.996-8.403-10.996-8.403v-6.839
		c0-11.396,10.996-14.386,10.996-14.386l11.467-3.118c10.998-2.991,10.998,8.404,10.998,8.404V106.394z"/>
</g>
<g>
	<path d="M136.485,232.548l-0.032-12.829l-1.275,0.295l0.001-133.476l52.526-12.137l0.006,147.624l-7.829,2.254l0.018-14.597
		l-35.281,8.15v12.498L136.485,232.548L136.485,232.548z M138.447,217.205l0.031,12.726l4.14-1.128v-12.561l39.285-9.076
		l-0.018,14.454l3.825-1.102l-0.006-143.603l-48.526,11.213l-0.001,129.37L138.447,217.205L138.447,217.205z M152.767,196.998
		c-3.537,0-6.153-1.75-7.565-5.061c-1.018-2.387-1.029-4.745-1.029-4.845v-6.834c0-12.021,11.616-15.319,11.733-15.352l11.467-3.12
		c5.418-1.469,9.369,0.164,11.229,4.525c1.019,2.388,1.03,4.746,1.03,4.846v6.835c0,12.021-11.617,15.32-11.734,15.353
		l-11.467,3.116C155.124,196.817,153.892,196.998,152.767,196.998L152.767,196.998z M171.033,163.252
		c-0.946,0-2.002,0.157-3.136,0.465l-11.467,3.12c-0.417,0.115-10.259,2.949-10.259,13.422v6.834
		c0.001,0.321,0.103,7.905,6.595,7.905c0.947,0,2.004-0.157,3.139-0.466l11.467-3.116c0.417-0.115,10.26-2.95,10.26-13.423v-6.835
		C177.631,170.837,177.529,163.252,171.033,163.252L171.033,163.252z M152.767,161.345c-3.538,0-6.154-1.75-7.565-5.06
		c-1.018-2.387-1.029-4.744-1.029-4.844v-6.838c0-12.022,11.616-15.318,11.733-15.35l11.467-3.12
		c5.422-1.474,9.371,0.164,11.231,4.524c1.018,2.386,1.029,4.745,1.029,4.844l-0.001,6.838c0,12.021-11.617,15.317-11.734,15.349
		l-11.467,3.119C155.124,161.164,153.892,161.345,152.767,161.345L152.767,161.345z M171.035,127.599
		c-0.947,0-2.003,0.156-3.138,0.465l-11.467,3.12c-0.418,0.115-10.259,2.947-10.259,13.42v6.838
		c0.001,0.321,0.102,7.903,6.595,7.903c0.947,0,2.003-0.157,3.139-0.466l11.467-3.119c0.418-0.115,10.26-2.947,10.26-13.419
		l0.001-6.838C177.632,135.182,177.531,127.599,171.035,127.599L171.035,127.599z M152.768,125.401c-3.538,0-6.154-1.75-7.566-5.06
		c-1.018-2.386-1.029-4.745-1.029-4.844v-6.839c0-12.022,11.616-15.319,11.733-15.351l11.467-3.118
		c5.418-1.472,9.37,0.162,11.231,4.524c1.018,2.386,1.029,4.745,1.029,4.844v6.835c0,12.021-11.618,15.32-11.735,15.352
		l-11.467,3.12C155.124,125.221,153.892,125.401,152.768,125.401L152.768,125.401z M171.036,91.655
		c-0.947,0-2.004,0.157-3.139,0.465l-11.467,3.118c-0.418,0.115-10.259,2.948-10.259,13.421v6.839
		c0.001,0.321,0.103,7.903,6.596,7.903c0.947,0,2.003-0.157,3.138-0.465l11.467-3.12c0.418-0.115,10.261-2.95,10.261-13.422v-6.835
		C177.632,99.238,177.531,91.655,171.036,91.655L171.036,91.655z"/>
</g>
<g>
	<polygon fill="#FFFFFF" points="189.584,65.971 189.896,65.907 189.584,65.835 	"/>
	<polygon fill="#FFFFFF" points="136.667,73.27 182.779,64.272 135.806,53.477 92.741,64.125 	"/>
</g>
<polygon points="136.45,49.606 83.962,61.868 83.962,62.298 83.962,74.99 83.962,75.42 85.975,75.89 85.974,151.412 85.974,207.084 
	85.984,207.086 85.984,221.271 91.812,222.949 91.796,208.429 130.343,217.333 130.343,230.997 136.519,232.531 136.519,215.939 
	136.502,215.939 136.502,87.671 189.584,75.635 189.584,74.346 189.584,65.971 189.584,65.835 189.584,62.944 189.584,61.653 "/>
<path fill="#FFFFFF" d="M127.507,187.093c0,0,0,11.396-10.998,8.404l-11.467-3.116c0,0-10.995-2.992-10.995-14.388v-6.835
	c0,0,0-11.396,10.995-8.406l11.467,3.12c0,0,10.998,2.991,10.998,14.387V187.093z"/>
<path fill="#FFFFFF" d="M127.507,151.439c0,0,0,11.396-10.998,8.403l-11.467-3.118c0,0-10.995-2.99-10.995-14.385v-6.839
	c0,0,0-11.395,10.995-8.404l11.468,3.12c0,0,10.997,2.989,10.997,14.385V151.439z"/>
<path fill="#FFFFFF" d="M127.507,115.497c0,0,0,11.395-10.997,8.403l-11.468-3.12c0,0-10.995-2.992-10.995-14.387v-6.835
	c0,0,0-11.396,10.995-8.404l11.468,3.118c0,0,10.997,2.99,10.997,14.386V115.497z"/>
<polygon points="165.712,67.602 160.37,68.645 136.667,73.27 96.119,64.829 92.741,64.125 135.806,53.477 182.778,64.272 "/>
<rect fill="none" width="278.072" height="279"/>
<polygon fill="#FFFFFF" points="137.186,216.406 137.127,230.275 138.749,229.875 139.173,215.053 "/>
<path fill="#FFFFFF" d="M119.026,234.943"/>
</svg>
